{
    "asset" : {
        "generator" : "Khronos glTF Blender I/O v1.6.16",
        "version" : "2.0"
    },
    "scene" : 0,
    "scenes" : [
        {
            "name" : "Scene",
            "nodes" : [
                0,
                1,
                2,
                3,
                4,
                5
            ]
        }
    ],
    "nodes" : [
        {
            "name" : "Light",
            "rotation" : [
                0.16907575726509094,
                0.7558803558349609,
                -0.27217137813568115,
                0.570947527885437
            ],
            "translation" : [
                4.076245307922363,
                5.903861999511719,
                -1.0054539442062378
            ]
        },
        {
            "name" : "Camera",
            "rotation" : [
                0.483536034822464,
                0.33687159419059753,
                -0.20870360732078552,
                0.7804827094078064
            ],
            "translation" : [
                7.358891487121582,
                4.958309173583984,
                6.925790786743164
            ]
        },
        {
            "name" : "Empty",
            "rotation" : [
                0.5000000596046448,
                0.5000001192092896,
                0.5,
                0.5
            ],
            "translation" : [
                0.013871663250029087,
                0.01733957789838314,
                0
            ]
        },
        {
            "mesh" : 0,
            "name" : "Plane",
            "rotation" : [
                0.7071068286895752,
                0,
                0,
                0.7071068286895752
            ],
            "scale" : [
                0.8509035110473633,
                0.8493824601173401,
                1
            ],
            "translation" : [
                -0.002986258827149868,
                0.0345291867852211,
                0
            ]
        },
        {
            "mesh" : 1,
            "name" : "Plane.001",
            "rotation" : [
                0.7071068286895752,
                0,
                0,
                0.7071068286895752
            ],
            "scale" : [
                0.834328830242157,
                0.834328830242157,
                1
            ],
            "translation" : [
                0,
                0.6213753819465637,
                0
            ]
        },
        {
            "mesh" : 2,
            "name" : "brush",
            "rotation" : [
                0.7071068286895752,
                0,
                0,
                0.7071068286895752
            ],
            "scale" : [
                1.185600757598877,
                1.185990810394287,
                1
            ],
            "translation" : [
                0.0002672635018825531,
                1.4220283031463623,
                -0.0015701992670074105
            ]
        }
    ],
    "materials" : [
        {
            "doubleSided" : true,
            "name" : "Material.001",
            "pbrMetallicRoughness" : {
                "baseColorTexture" : {
                    "index" : 0
                },
                "metallicFactor" : 0,
                "roughnessFactor" : 0.5
            }
        },
        {
            "doubleSided" : true,
            "name" : "Material.002",
            "pbrMetallicRoughness" : {
                "baseColorTexture" : {
                    "index" : 1
                },
                "metallicFactor" : 0.7573529481887817,
                "roughnessFactor" : 0.5
            }
        },
        {
            "doubleSided" : true,
            "name" : "brushColor",
            "pbrMetallicRoughness" : {
                "baseColorFactor" : [
                    0.9670483469963074,
                    1,
                    0.8794688582420349,
                    1
                ],
                "metallicFactor" : 0,
                "roughnessFactor" : 0.5
            }
        }
    ],
    "meshes" : [
        {
            "name" : "Plane.001",
            "primitives" : [
                {
                    "attributes" : {
                        "POSITION" : 0,
                        "NORMAL" : 1,
                        "TEXCOORD_0" : 2
                    },
                    "indices" : 3,
                    "material" : 0
                }
            ]
        },
        {
            "name" : "Plane.002",
            "primitives" : [
                {
                    "attributes" : {
                        "POSITION" : 4,
                        "NORMAL" : 5,
                        "TEXCOORD_0" : 6
                    },
                    "indices" : 7,
                    "material" : 1
                }
            ]
        },
        {
            "name" : "Plane.003",
            "primitives" : [
                {
                    "attributes" : {
                        "POSITION" : 8,
                        "NORMAL" : 9,
                        "TEXCOORD_0" : 10
                    },
                    "indices" : 11,
                    "material" : 2
                }
            ]
        }
    ],
    "textures" : [
        {
            "sampler" : 0,
            "source" : 0
        },
        {
            "sampler" : 0,
            "source" : 1
        }
    ],
    "images" : [
        {
            "bufferView" : 4,
            "mimeType" : "image/jpeg",
            "name" : "redwood"
        },
        {
            "bufferView" : 9,
            "mimeType" : "image/jpeg",
            "name" : "metal"
        }
    ],
    "accessors" : [
        {
            "bufferView" : 0,
            "componentType" : 5126,
            "count" : 1284,
            "max" : [
                0.1103447675704956,
                0.1103447675704956,
                1.2211968898773193
            ],
            "min" : [
                -0.11099249869585037,
                -0.11099250614643097,
                -0.8449070453643799
            ],
            "type" : "VEC3"
        },
        {
            "bufferView" : 1,
            "componentType" : 5126,
            "count" : 1284,
            "type" : "VEC3"
        },
        {
            "bufferView" : 2,
            "componentType" : 5126,
            "count" : 1284,
            "type" : "VEC2"
        },
        {
            "bufferView" : 3,
            "componentType" : 5123,
            "count" : 6720,
            "type" : "SCALAR"
        },
        {
            "bufferView" : 5,
            "componentType" : 5126,
            "count" : 5180,
            "max" : [
                0.0905398428440094,
                0.0905398279428482,
                -0.2460785061120987
            ],
            "min" : [
                -0.0905398428440094,
                -0.0905398577451706,
                -0.7894320487976074
            ],
            "type" : "VEC3"
        },
        {
            "bufferView" : 6,
            "componentType" : 5126,
            "count" : 5180,
            "type" : "VEC3"
        },
        {
            "bufferView" : 7,
            "componentType" : 5126,
            "count" : 5180,
            "type" : "VEC2"
        },
        {
            "bufferView" : 8,
            "componentType" : 5123,
            "count" : 29184,
            "type" : "SCALAR"
        },
        {
            "bufferView" : 10,
            "componentType" : 5126,
            "count" : 1999,
            "max" : [
                0.061536986380815506,
                0.061536986380815506,
                0.00839581061154604
            ],
            "min" : [
                -0.061536986380815506,
                -0.06153338775038719,
                -0.4068254828453064
            ],
            "type" : "VEC3"
        },
        {
            "bufferView" : 11,
            "componentType" : 5126,
            "count" : 1999,
            "type" : "VEC3"
        },
        {
            "bufferView" : 12,
            "componentType" : 5126,
            "count" : 1999,
            "type" : "VEC2"
        },
        {
            "bufferView" : 13,
            "componentType" : 5123,
            "count" : 10368,
            "type" : "SCALAR"
        }
    ],
    "bufferViews" : [
        {
            "buffer" : 0,
            "byteLength" : 15408,
            "byteOffset" : 0
        },
        {
            "buffer" : 0,
            "byteLength" : 15408,
            "byteOffset" : 15408
        },
        {
            "buffer" : 0,
            "byteLength" : 10272,
            "byteOffset" : 30816
        },
        {
            "buffer" : 0,
            "byteLength" : 13440,
            "byteOffset" : 41088
        },
        {
            "buffer" : 0,
            "byteLength" : 318748,
            "byteOffset" : 54528
        },
        {
            "buffer" : 0,
            "byteLength" : 62160,
            "byteOffset" : 373276
        },
        {
            "buffer" : 0,
            "byteLength" : 62160,
            "byteOffset" : 435436
        },
        {
            "buffer" : 0,
            "byteLength" : 41440,
            "byteOffset" : 497596
        },
        {
            "buffer" : 0,
            "byteLength" : 58368,
            "byteOffset" : 539036
        },
        {
            "buffer" : 0,
            "byteLength" : 59748,
            "byteOffset" : 597404
        },
        {
            "buffer" : 0,
            "byteLength" : 23988,
            "byteOffset" : 657152
        },
        {
            "buffer" : 0,
            "byteLength" : 23988,
            "byteOffset" : 681140
        },
        {
            "buffer" : 0,
            "byteLength" : 15992,
            "byteOffset" : 705128
        },
        {
            "buffer" : 0,
            "byteLength" : 20736,
            "byteOffset" : 721120
        }
    ],
    "samplers" : [
        {
            "magFilter" : 9729,
            "minFilter" : 9987
        }
    ],
    "buffers" : [
        {
            "byteLength" : 741856,
            "uri" : "data:application/octet-stream;base64,"
        }
    ]
}
