{
    "asset" : {
        "generator" : "Khronos glTF Blender I/O v1.7.33",
        "version" : "2.0"
    },
    "scene" : 0,
    "scenes" : [
        {
            "name" : "Scene",
            "nodes" : [
                0,
                1,
                2
            ]
        }
    ],
    "nodes" : [
        {
            "mesh" : 0,
            "name" : "Johannes_Vermeer_(1632-1675)_-_The_Girl_With_The_Pearl_Earr"
        },
        {
            "mesh" : 1,
            "name" : "Sphere.001",
            "scale" : [
                0.2880000174045563,
                0.2880000174045563,
                0.2880000174045563
            ],
            "translation" : [
                -0.13257691264152527,
                -0.0038329102098941803,
                -0.11791351437568665
            ]
        },
        {
            "mesh" : 2,
            "name" : "Cube",
            "scale" : [
                0.374661922454834,
                0.019348740577697754,
                0.5336708426475525
            ],
            "translation" : [
                0,
                -0.03015797957777977,
                0
            ]
        }
    ],
    "animations" : [
        {
            "channels" : [
                {
                    "sampler" : 0,
                    "target" : {
                        "node" : 1,
                        "path" : "translation"
                    }
                },
                {
                    "sampler" : 1,
                    "target" : {
                        "node" : 1,
                        "path" : "rotation"
                    }
                },
                {
                    "sampler" : 2,
                    "target" : {
                        "node" : 1,
                        "path" : "scale"
                    }
                }
            ],
            "name" : "Sphere.001Action",
            "samplers" : [
                {
                    "input" : 12,
                    "interpolation" : "LINEAR",
                    "output" : 13
                },
                {
                    "input" : 14,
                    "interpolation" : "LINEAR",
                    "output" : 15
                },
                {
                    "input" : 14,
                    "interpolation" : "LINEAR",
                    "output" : 16
                }
            ]
        }
    ],
    "materials" : [
        {
            "doubleSided" : true,
            "name" : "Material.004",
            "pbrMetallicRoughness" : {
                "baseColorTexture" : {
                    "index" : 0
                },
                "metallicFactor" : 0,
                "roughnessFactor" : 0.5
            }
        },
        {
            "doubleSided" : true,
            "name" : "Material.002",
            "pbrMetallicRoughness" : {
                "baseColorTexture" : {
                    "index" : 1
                },
                "metallicFactor" : 0,
                "roughnessFactor" : 0.44300517439842224
            }
        },
        {
            "doubleSided" : true,
            "name" : "Material.003",
            "pbrMetallicRoughness" : {
                "baseColorTexture" : {
                    "index" : 2
                },
                "metallicFactor" : 0,
                "roughnessFactor" : 0.5
            }
        }
    ],
    "meshes" : [
        {
            "name" : "Johannes_Vermeer_(1632-1675)_-_The_Girl_With_The_Pearl_Earr",
            "primitives" : [
                {
                    "attributes" : {
                        "POSITION" : 0,
                        "NORMAL" : 1,
                        "TEXCOORD_0" : 2
                    },
                    "indices" : 3,
                    "material" : 0
                }
            ]
        },
        {
            "name" : "Sphere.001",
            "primitives" : [
                {
                    "attributes" : {
                        "POSITION" : 4,
                        "NORMAL" : 5,
                        "TEXCOORD_0" : 6
                    },
                    "indices" : 7,
                    "material" : 1
                }
            ]
        },
        {
            "name" : "Cube.001",
            "primitives" : [
                {
                    "attributes" : {
                        "POSITION" : 8,
                        "NORMAL" : 9,
                        "TEXCOORD_0" : 10
                    },
                    "indices" : 11,
                    "material" : 2
                }
            ]
        }
    ],
    "textures" : [
        {
            "sampler" : 0,
            "source" : 0
        },
        {
            "sampler" : 0,
            "source" : 1
        },
        {
            "sampler" : 0,
            "source" : 2
        }
    ],
    "images" : [
        {
            "bufferView" : 4,
            "mimeType" : "image/jpeg",
            "name" : "Johannes_Vermeer_(1632-1675)_-_The_Girl_With_The_Pearl_Earring_(1665)"
        },
        {
            "bufferView" : 9,
            "mimeType" : "image/png",
            "name" : "eye.001"
        },
        {
            "bufferView" : 14,
            "mimeType" : "image/jpeg",
            "name" : "woodtexture"
        }
    ],
    "accessors" : [
        {
            "bufferView" : 0,
            "componentType" : 5126,
            "count" : 638,
            "max" : [
                0.34961095452308655,
                1.5959142274368787e-06,
                0.5
            ],
            "min" : [
                -0.349609375,
                -0.006108400411903858,
                -0.5000059008598328
            ],
            "type" : "VEC3"
        },
        {
            "bufferView" : 1,
            "componentType" : 5126,
            "count" : 638,
            "type" : "VEC3"
        },
        {
            "bufferView" : 2,
            "componentType" : 5126,
            "count" : 638,
            "type" : "VEC2"
        },
        {
            "bufferView" : 3,
            "componentType" : 5123,
            "count" : 1056,
            "type" : "SCALAR"
        },
        {
            "bufferView" : 5,
            "componentType" : 5126,
            "count" : 2480,
            "max" : [
                0.37301862239837646,
                0.010000001639127731,
                0.11713874340057373
            ],
            "min" : [
                -0.050000011920928955,
                -0.010000001639127731,
                -0.05000000074505806
            ],
            "type" : "VEC3"
        },
        {
            "bufferView" : 6,
            "componentType" : 5126,
            "count" : 2480,
            "type" : "VEC3"
        },
        {
            "bufferView" : 7,
            "componentType" : 5126,
            "count" : 2480,
            "type" : "VEC2"
        },
        {
            "bufferView" : 8,
            "componentType" : 5123,
            "count" : 3600,
            "type" : "SCALAR"
        },
        {
            "bufferView" : 10,
            "componentType" : 5126,
            "count" : 72,
            "max" : [
                1.0260460376739502,
                1.7481865882873535,
                1.0260461568832397
            ],
            "min" : [
                -1.0260460376739502,
                -1,
                -1.0260461568832397
            ],
            "type" : "VEC3"
        },
        {
            "bufferView" : 11,
            "componentType" : 5126,
            "count" : 72,
            "type" : "VEC3"
        },
        {
            "bufferView" : 12,
            "componentType" : 5126,
            "count" : 72,
            "type" : "VEC2"
        },
        {
            "bufferView" : 13,
            "componentType" : 5123,
            "count" : 108,
            "type" : "SCALAR"
        },
        {
            "bufferView" : 15,
            "componentType" : 5126,
            "count" : 240,
            "max" : [
                10
            ],
            "min" : [
                0.041666666666666664
            ],
            "type" : "SCALAR"
        },
        {
            "bufferView" : 16,
            "componentType" : 5126,
            "count" : 240,
            "type" : "VEC3"
        },
        {
            "bufferView" : 17,
            "componentType" : 5126,
            "count" : 2,
            "max" : [
                10
            ],
            "min" : [
                0.041666666666666664
            ],
            "type" : "SCALAR"
        },
        {
            "bufferView" : 18,
            "componentType" : 5126,
            "count" : 2,
            "type" : "VEC4"
        },
        {
            "bufferView" : 19,
            "componentType" : 5126,
            "count" : 2,
            "type" : "VEC3"
        }
    ],
    "bufferViews" : [
        {
            "buffer" : 0,
            "byteLength" : 7656,
            "byteOffset" : 0
        },
        {
            "buffer" : 0,
            "byteLength" : 7656,
            "byteOffset" : 7656
        },
        {
            "buffer" : 0,
            "byteLength" : 5104,
            "byteOffset" : 15312
        },
        {
            "buffer" : 0,
            "byteLength" : 2112,
            "byteOffset" : 20416
        },
        {
            "buffer" : 0,
            "byteLength" : 60157,
            "byteOffset" : 22528
        },
        {
            "buffer" : 0,
            "byteLength" : 29760,
            "byteOffset" : 82688
        },
        {
            "buffer" : 0,
            "byteLength" : 29760,
            "byteOffset" : 112448
        },
        {
            "buffer" : 0,
            "byteLength" : 19840,
            "byteOffset" : 142208
        },
        {
            "buffer" : 0,
            "byteLength" : 7200,
            "byteOffset" : 162048
        },
        {
            "buffer" : 0,
            "byteLength" : 200958,
            "byteOffset" : 169248
        },
        {
            "buffer" : 0,
            "byteLength" : 864,
            "byteOffset" : 370208
        },
        {
            "buffer" : 0,
            "byteLength" : 864,
            "byteOffset" : 371072
        },
        {
            "buffer" : 0,
            "byteLength" : 576,
            "byteOffset" : 371936
        },
        {
            "buffer" : 0,
            "byteLength" : 216,
            "byteOffset" : 372512
        },
        {
            "buffer" : 0,
            "byteLength" : 2502,
            "byteOffset" : 372728
        },
        {
            "buffer" : 0,
            "byteLength" : 960,
            "byteOffset" : 375232
        },
        {
            "buffer" : 0,
            "byteLength" : 2880,
            "byteOffset" : 376192
        },
        {
            "buffer" : 0,
            "byteLength" : 8,
            "byteOffset" : 379072
        },
        {
            "buffer" : 0,
            "byteLength" : 32,
            "byteOffset" : 379080
        },
        {
            "buffer" : 0,
            "byteLength" : 24,
            "byteOffset" : 379112
        }
    ],
    "samplers" : [
        {
            "magFilter" : 9729,
            "minFilter" : 9987
        }
    ],
    "buffers" : [
        {
            "byteLength" : 379136,
            "uri" : "data:application/octet-stream;base64,"
        }
    ]
}
